PathFileType	4	(X/Y/Z)	C:/Users/opensim2020/Desktop/walking_exp_matlab/subject01_walking14_straight_01.trc	
DataRate	CameraRate	NumFrames	NumMarkers	Units	OrigDataRate	OrigDataStartFrame	OrigNumFrames	
100.00	100.00	5	42	mm	100.00	717	106	
Frame#	Time	LFHD			RFHD			LBHD			RBHD			C7			T10			CLAV			STRN			RBAK			LSHO			LUPA			LELB			LFRM			LWRA			LWRB			LFIN			RSHO			RUPA			RELB			RFRM			RWRA			RWRB			RFIN			LASI			RASI			LPSI			RPSI			LTHI			LKNE			LTIB			LANK			LHEE			LTOE			RTHI			RKNE			RTIB			RANK			RHEE			RTOE			*39			*40			*41			
		X1	Y1	Z1	X2	Y2	Z2	X3	Y3	Z3	X4	Y4	Z4	X5	Y5	Z5	X6	Y6	Z6	X7	Y7	Z7	X8	Y8	Z8	X9	Y9	Z9	X10	Y10	Z10	X11	Y11	Z11	X12	Y12	Z12	X13	Y13	Z13	X14	Y14	Z14	X15	Y15	Z15	X16	Y16	Z16	X17	Y17	Z17	X18	Y18	Z18	X19	Y19	Z19	X20	Y20	Z20	X21	Y21	Z21	X22	Y22	Z22	X23	Y23	Z23	X24	Y24	Z24	X25	Y25	Z25	X26	Y26	Z26	X27	Y27	Z27	X28	Y28	Z28	X29	Y29	Z29	X30	Y30	Z30	X31	Y31	Z31	X32	Y32	Z32	X33	Y33	Z33	X34	Y34	Z34	X35	Y35	Z35	X36	Y36	Z36	X37	Y37	Z37	X38	Y38	Z38	X39	Y39	Z39	X40	Y40	Z40	X41	Y41	Z41	X42	Y42	Z42	

40	0.390	1473.83008	-345.46805	1648.11523	1579.29749	-303.93005	1651.31958	1510.21814	-453.23978	1598.53723	1622.61438	-411.86365	1600.37390	1532.34668	-482.73453	1411.22253	1531.45239	-533.16882	1120.82361	1524.32300	-341.33496	1336.22900	1511.81287	-306.64154	1180.21826	1596.94666	-544.47711	1217.37634	1368.10522	-405.86285	1375.08447	1270.37549	-426.78128	1198.56934	1251.88721	-423.43121	1045.65759	1240.31104	-316.60956	993.05164	1270.25842	-183.60382	979.62830	1249.20654	-211.62128	931.10370	1242.31445	-127.80329	926.55237	1679.07874	-400.99017	1365.13098	1764.23877	-503.62839	1178.03491	1768.20166	-520.35590	1055.55273	1798.75757	-526.01538	936.47424	1785.20667	-479.10324	802.03381	1818.13025	-525.11243	814.47913	1824.36023	-508.57233	730.41907	1404.50366	-385.64001	907.25287	1618.02051	-350.36490	913.84796	1492.31665	-559.19934	926.03455	1633.73572	-536.28101	925.02673	1374.92334	-502.96979	582.72351	1396.58411	-554.83643	455.42865	1400.86890	-680.61151	311.19424	1461.68530	-804.53687	131.47319	1512.41760	-856.04272	134.24988	1475.11279	-697.86877	29.66862	1697.54260	-311.05511	600.15698	1674.32739	-250.63814	456.06430	1688.32739	-250.39789	279.26486	1651.68958	-199.55409	74.17862	1603.00537	-233.29324	25.39400	1650.20801	-54.22530	73.84120	1562.09924	-321.68677	1684.97705	-3101.98267	1973.09180	1023.93774	-3140.81421	2012.55200	1022.14380 
41	0.400	1476.76550	-332.46625	1648.01819	1581.93481	-290.47992	1650.98816	1513.57715	-440.19952	1597.78076	1625.75830	-397.97211	1599.37842	1535.15015	-469.05603	1410.48303	1533.53076	-518.21228	1119.71985	1526.63220	-327.14026	1335.93628	1513.69421	-291.82751	1180.24097	1599.28003	-529.81616	1216.12610	1370.69116	-392.27902	1374.84558	1272.36096	-413.28506	1198.62476	1253.20581	-410.34549	1045.87720	1241.21606	-303.67303	993.13287	1270.68762	-170.59683	979.73621	1249.51868	-198.55481	931.30359	1242.28662	-114.82703	926.92889	1681.65186	-386.53592	1364.36523	1766.41736	-488.51675	1176.53638	1770.16821	-504.76266	1054.09399	1800.49939	-510.29050	934.99664	1786.70007	-463.47104	800.54926	1819.69604	-509.32629	813.09125	1825.84534	-492.92941	728.96106	1406.10522	-369.29590	906.67084	1619.72290	-334.71118	913.88177	1493.35205	-543.52490	924.83539	1635.28149	-520.70331	923.91229	1375.37854	-485.66199	581.63568	1395.99292	-537.37256	454.26306	1399.51489	-667.45148	313.48917	1459.11853	-797.27814	137.67566	1509.91138	-847.84052	143.21109	1474.82324	-696.45465	29.58073	1695.50769	-294.04840	599.18353	1674.51123	-236.98006	453.93674	1684.44336	-241.24823	276.99841	1650.89624	-192.54243	73.99892	1604.04797	-231.81554	28.43039	1646.68286	-47.37629	64.88826	1564.95508	-308.45547	1684.55115	-3101.97974	1973.15295	1023.57166	-3140.72461	2012.53064	1022.07874 
42	0.410	1479.62097	-319.56079	1648.63342	1584.67334	-276.92087	1651.45032	1516.92761	-426.77615	1597.44153	1628.87744	-383.83932	1598.89941	1538.30640	-455.42947	1410.58826	1535.57251	-503.24615	1119.39209	1528.83325	-312.94855	1336.11365	1515.58496	-276.93356	1180.89063	1601.69958	-515.01178	1215.04993	1373.16003	-378.78220	1374.96545	1274.34082	-400.21152	1198.81482	1254.63196	-397.64838	1045.92383	1242.04468	-291.11789	993.07068	1271.01990	-157.98708	979.23047	1249.71704	-186.17461	930.95709	1242.18506	-102.51307	926.38220	1684.31421	-371.94211	1363.87830	1768.76282	-472.89526	1175.09668	1772.17969	-488.79297	1052.69067	1802.25232	-494.14499	933.50061	1788.03760	-447.27725	799.19324	1821.10645	-493.16721	811.62842	1827.22925	-476.50284	727.63354	1407.93176	-353.08228	906.17438	1621.42639	-319.39261	914.45160	1494.13635	-528.01892	923.85217	1636.96411	-505.13004	922.98920	1375.84473	-467.49570	580.54266	1395.20801	-518.88129	453.17465	1398.18958	-653.18744	315.97141	1456.12622	-788.63367	144.19492	1506.71899	-837.70734	152.69698	1473.52124	-695.78186	30.22311	1696.11963	-279.41599	599.37408	1674.94568	-221.53690	454.09869	1682.45142	-228.90559	279.25565	1651.52539	-186.26305	74.43156	1604.65759	-228.41922	29.63091	1643.79419	-42.35835	58.93161	1567.93457	-295.34537	1684.63257	-3101.89893	1973.16199	1023.52594	-3140.70410	2012.45007	1021.96942 
43	0.420	1482.53748	-306.49472	1649.90479	1587.29382	-263.20218	1652.55908	1520.38831	-412.97885	1597.89844	1631.97156	-369.59494	1599.25232	1541.25305	-441.26749	1411.13477	1537.14417	-488.61664	1120.38647	1531.04370	-298.79254	1337.03125	1517.47168	-262.18933	1182.03918	1603.99890	-500.12341	1214.76367	1375.33740	-365.34998	1375.60718	1276.57214	-387.21423	1199.30847	1256.57874	-385.29700	1046.14685	1243.08325	-279.06366	992.63904	1271.18921	-145.83394	978.07239	1249.81628	-174.39120	930.08154	1242.00830	-90.79612	925.07629	1686.90979	-357.32123	1363.71289	1771.25635	-456.88068	1173.93420	1774.21716	-472.26083	1051.37573	1804.05701	-477.38348	932.11267	1789.29663	-430.31198	797.94623	1822.57532	-476.16125	810.16071	1828.54846	-459.29950	726.47961	1409.93445	-337.15530	906.07202	1623.33398	-304.01712	915.08441	1494.57788	-512.56927	923.07983	1638.23047	-489.86523	922.88995	1376.12598	-447.98306	579.43195	1394.11145	-498.89169	451.90097	1396.59302	-637.39703	318.91602	1452.79419	-777.76849	150.96606	1503.52393	-825.01593	162.92223	1473.65820	-694.26154	29.80088	1699.59973	-266.78915	600.04761	1674.44299	-204.54131	457.26141	1686.11267	-214.14192	282.95685	1652.38171	-182.17198	74.56692	1605.99304	-227.33800	31.46250	1641.85144	-39.34831	52.13917	1570.93066	-282.19327	1685.53735	-3101.93579	1973.17810	1023.50317	-3140.70972	2012.52405	1022.07458 
44	0.430	1485.39819	-292.98843	1651.22144	1589.73218	-249.13103	1653.70178	1523.67639	-399.35889	1599.11621	1635.02063	-355.09665	1600.23328	1543.71118	-426.76224	1411.96667	1538.30847	-473.68729	1120.95459	1533.11267	-284.65582	1338.42517	1519.46643	-247.45035	1183.47717	1606.58276	-485.50491	1215.35815	1377.25610	-351.72916	1376.62158	1278.79688	-374.51184	1200.15857	1258.52551	-373.27597	1046.70923	1244.12744	-267.64316	992.17542	1271.27454	-134.29955	976.33466	1249.96741	-163.36172	928.81384	1241.92004	-79.81936	923.01434	1689.28638	-342.66824	1363.85938	1773.73145	-440.52356	1173.07007	1776.17639	-455.19058	1050.35901	1805.80591	-459.96906	931.03906	1790.45862	-412.77228	797.06116	1824.15576	-458.39642	809.04315	1829.75732	-441.30118	725.63794	1412.23169	-321.14169	906.46246	1625.15588	-288.73349	916.13043	1494.72803	-497.19809	922.71057	1638.88916	-475.07535	923.72931	1376.15466	-427.61877	578.60999	1392.36353	-476.93414	450.51016	1394.54089	-619.67987	322.27164	1449.28210	-764.55280	157.76588	1500.83325	-809.36829	173.13376	1473.15112	-693.12292	29.90282	1701.71045	-255.27327	600.13458	1673.29236	-188.74158	459.45624	1688.55750	-199.79198	285.26138	1653.01990	-179.31117	75.00873	1606.99316	-225.51572	32.42588	1642.37366	-37.33190	45.41797	1573.76428	-268.54880	1686.92444	-3101.86304	1973.21265	1023.49213	-3140.75146	2012.54370	1022.10529 
